<svg width="2675" height="3716" viewBox="0 0 2675 3716" fill="none" xmlns="http://www.w3.org/2000/svg">
<path d="M1445.33 2660.27V3131.04C1445.33 3160.92 1433.24 3187.96 1413.68 3207.57C1394.07 3227.13 1367.03 3239.23 1337.15 3239.23C1277.39 3239.23 1228.96 3190.8 1228.96 3131.04V2660.27C1142.08 2619.55 1081.88 2531.36 1081.88 2429.05C1081.88 2288.09 1196.19 2173.79 1337.15 2173.79C1478.16 2173.79 1592.47 2288.09 1592.47 2429.05C1592.47 2531.36 1532.23 2619.55 1445.33 2660.27ZM597.064 1083.92C597.064 675.827 929.068 343.814 1337.16 343.814C1745.25 343.814 2077.27 675.827 2077.27 1083.92V1692.6H597.064V1083.92ZM2493.63 1692.6H2421.08V1083.92C2421.08 794.387 2308.33 522.2 2103.6 317.48C1898.88 112.747 1626.69 0.000416783 1337.16 0.000416783C1047.64 0.000416783 775.448 112.747 570.727 317.48C366.003 522.2 253.257 794.387 253.257 1083.92V1692.6H180.667C80.912 1692.6 0 1773.47 0 1873.27V3534.99C0 3634.79 80.912 3715.65 180.667 3715.65H2493.63C2593.44 3715.65 2674.31 3634.79 2674.31 3534.99V1873.27C2674.31 1773.47 2593.44 1692.6 2493.63 1692.6Z" fill="#AAAAAA"/>
</svg>
