<svg width="2675" height="3716" viewBox="0 0 2675 3716" fill="none" xmlns="http://www.w3.org/2000/svg">
<path d="M1445.35 2660.27V3131.04C1445.35 3160.92 1433.25 3187.96 1413.68 3207.57C1394.07 3227.13 1367.04 3239.23 1337.16 3239.23C1277.4 3239.23 1228.97 3190.8 1228.97 3131.04V2660.27C1142.08 2619.55 1081.89 2531.36 1081.89 2429.05C1081.89 2288.09 1196.2 2173.79 1337.16 2173.79C1478.16 2173.79 1592.47 2288.09 1592.47 2429.05C1592.47 2531.36 1532.24 2619.55 1445.35 2660.27ZM2493.64 1692.6H597.067V1091.08C597.067 681.987 925.973 344.96 1335.08 343.814C1744.13 342.667 2077.28 675.12 2077.28 1083.92V1138.56C2077.28 1190.07 2119.03 1231.81 2170.53 1231.81H2327.83C2379.33 1231.81 2421.08 1190.07 2421.08 1138.56V1083.92C2421.08 794.387 2308.33 522.2 2103.61 317.48C1898.89 112.747 1626.69 0.000416783 1337.17 0.000416783C1047.65 0.000416783 775.453 112.747 570.733 317.48C366.013 522.2 253.267 794.387 253.267 1083.92V1692.6H180.68C80.9199 1692.6 0 1773.47 0 1873.27V3534.99C0 3634.79 80.9199 3715.65 180.68 3715.65H2493.64C2593.44 3715.65 2674.31 3634.79 2674.31 3534.99V1873.27C2674.31 1773.47 2593.44 1692.6 2493.64 1692.6Z" fill="#AAAAAA"/>
</svg>
